<?xml version="1.0" standalone="no"?>
<!DOCTYPE svg PUBLIC "-//W3C//DTD SVG 20010904//EN"
 "http://www.w3.org/TR/2001/REC-SVG-20010904/DTD/svg10.dtd">
<svg version="1.0" xmlns="http://www.w3.org/2000/svg"
 width="600.000000pt" height="486.000000pt" viewBox="0 0 600.000000 486.000000"
 preserveAspectRatio="xMidYMid meet">

<g transform="translate(0.000000,486.000000) scale(0.100000,-0.100000)"
fill="#000000" stroke="none">
<path d="M2865 4553 c-1085 -94 -1915 -991 -1915 -2069 0 -336 97 -708 260
-996 l39 -69 -100 -297 c-244 -718 -275 -812 -270 -812 4 0 682 215 964 306
92 30 174 54 181 54 7 0 64 -24 127 -54 282 -134 566 -196 899 -196 1008 0
1870 724 2047 1720 34 190 38 461 9 645 -68 442 -256 819 -566 1139 -345 355
-769 563 -1268 621 -115 14 -302 17 -407 8z m493 -352 c501 -93 938 -401 1205
-851 151 -254 228 -542 228 -854 0 -173 -3 -201 -33 -355 -115 -593 -572
-1107 -1157 -1301 -216 -72 -296 -84 -556 -85 -202 0 -243 3 -340 23 -202 42
-437 133 -586 228 -21 13 -44 24 -51 24 -7 -1 -159 -47 -338 -104 -179 -57
-326 -102 -328 -101 -1 1 45 142 103 313 58 170 105 316 105 323 0 6 -22 46
-49 88 -362 566 -370 1282 -20 1846 284 456 760 759 1299 825 120 14 389 4
518 -19z"/>
<path d="M2263 3415 c-17 -7 -51 -33 -74 -57 -170 -174 -212 -416 -113 -665
68 -172 245 -422 444 -627 225 -232 404 -348 705 -455 270 -96 356 -112 474
-86 130 27 253 96 325 182 36 42 65 132 73 220 5 67 4 73 -20 95 -24 22 -328
171 -430 210 -26 10 -58 16 -71 12 -13 -3 -57 -49 -106 -110 -103 -130 -134
-158 -170 -150 -45 8 -230 102 -310 155 -41 27 -109 82 -152 121 -126 115
-274 310 -285 374 -4 29 2 40 52 97 63 72 115 154 115 184 0 18 -142 370 -181
447 -30 59 -51 68 -154 68 -54 -1 -103 -6 -122 -15z"/>
</g>
</svg>
